<svg xmlns="http://www.w3.org/2000/svg" viewBox="0 0 269.29 170.08"><defs><style>.cls-1{fill:#231f20;}.cls-2{fill:#f2f2f3;}.cls-3{fill:#c1282d;}</style></defs><title>Artboard 1</title><g id="Layer_3" data-name="Layer 3"><rect class="cls-1" width="269.29" height="170.08"/><polygon class="cls-2" points="187.53 55.43 187.53 55.43 187.53 114.65 187.53 114.65 200.22 114.65 200.22 106.19 195.99 106.19 195.99 101.96 200.22 101.96 200.22 93.5 195.99 93.5 195.99 63.89 200.22 63.89 200.22 55.43 187.53 55.43"/><polygon class="cls-2" points="81.77 106.19 77.54 106.19 77.54 63.89 81.77 63.89 81.77 55.43 69.08 55.43 69.08 55.43 69.08 114.65 69.08 114.65 81.77 114.65 81.77 106.19"/><polygon class="cls-2" points="136.76 55.43 136.76 55.43 136.76 114.65 145.22 114.65 145.22 63.89 149.45 63.89 149.45 114.65 157.91 114.65 157.91 55.43 157.91 55.43 136.76 55.43"/><path class="cls-2" d="M162.14,106.19v8.46h21.15V55.43H162.14V102h12.69v4.23ZM170.6,93.5V63.89h4.23V93.5Z"/><polygon class="cls-2" points="86 55.43 86 114.65 94.46 114.65 94.46 101.96 98.69 101.96 98.69 114.65 107.15 114.65 107.15 55.43 98.69 55.43 98.69 93.5 94.46 93.5 94.46 55.43 86 55.43"/><path class="cls-2" d="M111.38,55.43h0v59.22h8.46V102h4.23v12.69h8.46V55.43H111.38Zm12.69,8.46V93.5h-4.23V63.89Z"/><rect class="cls-3" x="69.08" y="42.74" width="131.14" height="8.46"/><rect class="cls-3" x="69.08" y="118.88" width="131.14" height="8.46"/></g></svg>