<svg xmlns="http://www.w3.org/2000/svg" viewBox="0 0 269.29 170.08"><defs><style>.cls-1{fill:#c1282d;}.cls-2,.cls-3{fill:#f2f2f3;}.cls-3,.cls-4{font-size:7.5px;font-family:SohoGothicPro-Light, Soho Gothic Pro;}.cls-4{fill:#231f20;}</style></defs><title>Artboard 2</title><g id="Layer_4" data-name="Layer 4"><rect class="cls-1" width="134.65" height="170.08"/><rect class="cls-2" x="134.65" width="134.65" height="170.08" transform="translate(403.94 170.08) rotate(180)"/><polygon class="cls-2" points="48.99 52.31 48.99 52.31 85.65 52.31 85.65 52.31 85.65 44.45 80.42 44.45 80.42 47.07 77.8 47.07 77.8 44.45 72.56 44.45 72.56 47.07 54.23 47.07 54.23 44.45 48.99 44.45 48.99 52.31"/><polygon class="cls-2" points="80.42 117.77 80.42 120.39 54.23 120.39 54.23 117.77 48.99 117.77 48.99 125.63 48.99 125.63 85.65 125.63 85.65 125.63 85.65 117.77 80.42 117.77"/><polygon class="cls-2" points="48.99 83.73 48.99 83.73 85.65 83.73 85.65 78.49 54.23 78.49 54.23 75.87 85.65 75.87 85.65 70.64 48.99 70.64 48.99 70.64 48.99 83.73"/><path class="cls-2" d="M80.42,68h5.23V54.93H49V68H77.8V60.16h2.62Zm-7.86-5.24H54.23V60.16H72.56Z"/><polygon class="cls-2" points="48.99 115.15 85.65 115.15 85.65 109.92 77.8 109.92 77.8 107.3 85.65 107.3 85.65 102.06 48.99 102.06 48.99 107.3 72.56 107.3 72.56 109.92 48.99 109.92 48.99 115.15"/><path class="cls-2" d="M49,99.44H85.65V94.2H77.8V91.59h7.85V86.35H49Zm5.24-7.85H72.56V94.2H54.23Z"/><rect class="cls-2" x="41.14" y="44.45" width="5.24" height="81.18"/><rect class="cls-2" x="88.27" y="44.45" width="5.24" height="81.18"/><text class="cls-3" transform="translate(115.59 144.85) rotate(-90)">Graphic Design | Web Developement</text><text class="cls-4" transform="translate(154.48 87.22)">f.com/changewebdesign</text><text class="cls-4" transform="translate(154.48 104.67)">@changewebdesign</text><text class="cls-4" transform="translate(154.48 69.76)">www.change-webdesign.com</text><path class="cls-1" d="M145.69,83.74A1.3,1.3,0,1,0,147,85,1.29,1.29,0,0,0,145.69,83.74Zm3.05-1A1.33,1.33,0,0,0,148,82a8.74,8.74,0,0,0-2.3-.16,8.84,8.84,0,0,0-2.31.16,1.28,1.28,0,0,0-.74.74,8.84,8.84,0,0,0-.16,2.31,8.74,8.74,0,0,0,.16,2.3,1.36,1.36,0,0,0,.74.75,8.84,8.84,0,0,0,2.31.16,8.74,8.74,0,0,0,2.3-.16,1.38,1.38,0,0,0,.75-.75,8.74,8.74,0,0,0,.15-2.3,8.84,8.84,0,0,0-.15-2.31ZM145.69,87a2,2,0,1,1,2-2,2,2,0,0,1-2,2Zm2.08-3.62a.47.47,0,1,1,.47-.47h0a.46.46,0,0,1-.46.47h0ZM150,79.56h-8.6a1.18,1.18,0,0,0-1.18,1.18v8.6a1.17,1.17,0,0,0,1.18,1.17H150a1.17,1.17,0,0,0,1.17-1.17v-8.6A1.17,1.17,0,0,0,150,79.56Zm-.42,7.09a2.16,2.16,0,0,1-2.27,2.27c-.64,0-2.58,0-3.22,0a2.16,2.16,0,0,1-2.27-2.27c0-.64,0-2.58,0-3.22a2.16,2.16,0,0,1,2.27-2.27c.64,0,2.58,0,3.22,0a2.16,2.16,0,0,1,2.27,2.27C149.61,84.07,149.61,86,149.57,86.65Z"/><path class="cls-1" d="M144.52,102.38a.3.3,0,0,0,.41,0l.2-.2a.3.3,0,0,0,0-.41l-.64-.64.64-.64a.3.3,0,0,0,0-.41l-.2-.2a.28.28,0,0,0-.41,0l-1.05,1a.3.3,0,0,0,0,.41Zm1.73-.2.2.2a.3.3,0,0,0,.41,0l1-1a.28.28,0,0,0,0-.41l-1-1a.28.28,0,0,0-.41,0l-.2.2a.28.28,0,0,0,0,.41l.64.64-.64.64a.28.28,0,0,0,0,.41Zm4.9,3h-4.36a.56.56,0,0,1-.58.58h-1.1a.62.62,0,0,1-.59-.58h-4.29a.29.29,0,0,0-.29.29v.29a1.16,1.16,0,0,0,1.15,1.15h9.2a1.16,1.16,0,0,0,1.15-1.15v-.29A.29.29,0,0,0,151.15,105.15Zm-.86-6.61a.87.87,0,0,0-.86-.86H142a.87.87,0,0,0-.86.86v6h9.2Zm-1.15,4.89h-6.9v-4.6h6.9Z"/><path class="cls-1" d="M150,62.33h-8.6a1.17,1.17,0,0,0-1.18,1.17v8.6a1.18,1.18,0,0,0,1.18,1.18h3.35V69.55H143.2V67.8h1.54V66.47A2.14,2.14,0,0,1,147,64.11a9.33,9.33,0,0,1,1.36.12v1.49h-.77a.87.87,0,0,0-1,.94V67.8h1.68l-.27,1.75h-1.41v3.73H150a1.17,1.17,0,0,0,1.17-1.18V63.5A1.17,1.17,0,0,0,150,62.33Z"/></g></svg>