<svg width="126" height="82" viewBox="0 0 126 82" fill="none" xmlns="http://www.w3.org/2000/svg">
<path d="M113.885 12.1155V69.0578H126V60.9233H121.961V56.8564H126V48.7214H121.961V20.2499H126V12.1155H113.885Z" fill="white"/>
<path d="M12.1154 60.9233H8.07672V20.2499H12.1154V12.1155H0V69.0578H12.1154V60.9233Z" fill="white"/>
<path d="M64.8173 12.1155V69.0578H73.0557V20.2499H77.1751V69.0578H85.4135V12.1155H64.8173Z" fill="white"/>
<path d="M89.6538 60.9228V69.0578H109.644V12.1155H89.6538V56.8559H101.648V60.9228H89.6538ZM97.6498 48.721V20.2504H101.648V48.721H97.6498Z" fill="white"/>
<path d="M16.3558 12.1155V69.0578H24.3519V56.8564H28.3502V69.0578H36.3462V12.1155H28.3502V48.7214H24.3519V12.1155H16.3558Z" fill="white"/>
<path d="M40.5866 12.1155V69.0578H48.8238V56.8559H52.9437V69.0578H61.1828V12.1155H40.5866ZM52.9455 20.2504V48.721H48.8257V20.2504H52.9455Z" fill="white"/>
<path d="M126 0H0V7.875H126V0Z" fill="#C1272D"/>
<path d="M126 73.2981H0V81.1731H126V73.2981Z" fill="#C1272D"/>
</svg>
